<?xml version="1.0" encoding="UTF-8" standalone="no"?>
<svg xmlns:rdf="http://www.w3.org/1999/02/22-rdf-syntax-ns#" xmlns="http://www.w3.org/2000/svg" height="10.643mm" width="42.333mm" version="1.1" xmlns:cc="http://creativecommons.org/ns#" xmlns:dc="http://purl.org/dc/elements/1.1/" viewBox="0 0 150 37.711369">
 <g transform="translate(-104.9 -302.8)">
  <path d="m104.9 336.8h150v3.7204h-150v-3.7204z"/>
  <path d="m173.39 302.8-6.7644 8.9628-7.6099-8.9628h-15.727l13.021 15.389v8.1172h13.698v-7.6099l12.007-15.896h-8.6246z"/>
  <path d="m183.88 302.8v23.506h31.454v-4.9042h-19.109v-4.3968h17.08v-4.9042h-17.08v-4.566h19.109v-4.7351h-31.454z"/>
  <path d="m128.92 302.8-5.4115 10.654-5.4115-10.654h-13.021v23.506h3.2131v-15.389l7.9481 15.389h6.9335l6.7644-15.389v15.389h12.007v-23.506h-13.021z"/>
  <path d="m254.73 309.4c0-4.566-4.0586-6.5953-9.1319-6.5953h-25.028v23.506h12.345v-9.1319l7.4408 9.1319h14.374l-8.1172-10.147c4.566-0.33822 8.1172-2.7058 8.1172-6.7644zm-16.573 2.0293h-5.2424v-3.8895h5.2424c1.522 0 2.8749 0.67643 2.8749 2.0293 0 1.1838-1.3529 1.8602-2.8749 1.8602z"/>
 </g>
</svg>
